<?xml version="1.0" standalone="no"?>
<!DOCTYPE svg PUBLIC "-//W3C//DTD SVG 20010904//EN"
 "http://www.w3.org/TR/2001/REC-SVG-20010904/DTD/svg10.dtd">
<svg version="1.0" xmlns="http://www.w3.org/2000/svg"
 width="300.000000pt" height="300.000000pt" viewBox="0 0 300.000000 300.000000"
 preserveAspectRatio="xMidYMid meet">
<metadata>
Created by potrace 1.10, written by Peter Selinger 2001-2011
</metadata>
<g transform="translate(0.000000,300.000000) scale(0.100000,-0.100000)"
fill="#000000" stroke="none">
<path d="M1456 2874 c-9 -8 -16 -19 -16 -23 0 -5 -13 -11 -30 -14 -34 -7 -39
-30 -14 -65 8 -12 12 -26 9 -32 -3 -5 0 -18 6 -28 10 -16 8 -25 -12 -53 -13
-19 -34 -45 -46 -58 l-22 -25 -48 41 c-39 33 -48 46 -49 74 0 19 4 42 9 52 9
20 -18 61 -34 51 -5 -3 -19 4 -31 15 -12 12 -25 21 -30 21 -12 0 -88 -73 -88
-84 0 -5 10 -30 21 -54 21 -42 21 -46 6 -78 -17 -35 -37 -43 -55 -21 -16 19
-24 75 -12 82 20 13 9 35 -30 60 -22 14 -46 25 -54 25 -16 0 -40 -35 -32 -48
2 -4 7 -34 10 -67 11 -111 18 -144 32 -156 10 -8 11 -15 4 -24 -12 -15 -6 -91
8 -108 6 -7 9 -32 7 -57 -2 -50 6 -75 31 -84 14 -6 152 7 229 20 17 3 116 7
220 9 169 2 259 -2 368 -19 116 -18 143 -18 159 1 9 10 18 41 21 68 2 28 10
70 17 94 10 34 10 48 1 63 -9 14 -9 24 1 41 13 23 38 233 31 254 -8 21 -31 22
-57 2 -13 -11 -28 -18 -33 -17 -4 2 -10 -1 -13 -7 -3 -5 7 -11 22 -13 19 -2
30 3 38 17 18 35 28 24 20 -21 -5 -24 -12 -80 -15 -126 -6 -68 -11 -85 -27
-93 -20 -11 -20 -11 -1 -28 14 -14 18 -28 15 -61 -4 -42 -4 -42 -39 -37 -19 4
-50 17 -67 31 -29 22 -39 24 -82 18 -27 -4 -77 -4 -112 0 -45 5 -80 3 -120 -7
-71 -19 -123 -19 -192 -1 -37 9 -75 12 -115 7 -33 -3 -82 -3 -108 1 -43 6 -53
4 -94 -23 -67 -42 -90 -39 -98 12 -5 30 -3 45 9 58 15 16 15 19 -4 36 -13 11
-20 31 -21 54 0 20 -6 73 -13 119 -12 81 -7 102 14 62 6 -12 21 -20 35 -20 28
0 32 -12 10 -30 -10 -8 -13 -21 -9 -33 3 -11 1 -23 -5 -26 -11 -7 67 -71 86
-71 8 0 73 101 73 114 0 3 -7 3 -15 0 -11 -4 -15 1 -15 17 0 12 -10 33 -21 45
l-22 23 27 7 c16 4 28 15 32 30 7 29 20 31 36 4 8 -12 24 -20 40 -20 31 0 36
-11 13 -30 -9 -8 -12 -22 -8 -42 4 -22 3 -29 -5 -24 -7 4 -12 5 -12 2 0 -6 48
-51 108 -101 l33 -28 30 29 c35 33 111 145 104 153 -3 2 -11 -1 -17 -7 -20
-20 -27 -13 -21 22 4 28 1 36 -16 45 -30 17 -26 31 9 31 23 0 33 6 42 25 6 14
15 25 19 25 5 0 11 -11 15 -25 5 -19 13 -25 33 -25 39 0 44 -10 16 -31 -20
-16 -22 -24 -15 -49 9 -33 8 -35 -21 -20 -10 6 -19 8 -19 5 0 -13 79 -121 109
-149 l30 -29 66 58 c43 38 62 60 55 65 -7 4 -9 16 -6 27 4 12 1 25 -9 33 -23
19 -18 40 10 40 14 0 29 8 35 20 14 27 24 25 38 -5 7 -15 20 -25 32 -25 24 0
26 -13 5 -30 -8 -7 -15 -25 -15 -41 0 -22 -4 -27 -17 -22 -13 5 -12 0 6 -33
12 -21 30 -50 41 -64 l18 -24 41 28 c49 34 73 60 46 50 -15 -6 -17 -3 -12 17
4 16 -1 32 -14 48 -22 27 -36 22 -20 -7 18 -34 13 -76 -11 -91 -20 -12 -24
-11 -45 15 -25 31 -24 52 4 112 l16 33 -47 43 -46 44 -27 -24 c-16 -13 -32
-24 -36 -24 -27 0 -48 -52 -27 -65 6 -3 10 -21 10 -40 0 -25 -7 -39 -27 -54
-16 -11 -35 -27 -44 -36 -14 -14 -18 -13 -42 5 -38 30 -70 87 -61 108 4 9 8
24 9 32 0 8 7 27 14 42 16 32 2 58 -30 58 -11 0 -19 5 -19 11 0 12 -29 38 -42
39 -4 0 -14 -7 -22 -16z m-306 -497 c0 -2 -11 -4 -25 -5 -24 -2 -32 7 -19 21
6 5 44 -9 44 -16z m717 -3 c2 -7 -6 -10 -22 -7 -14 3 -25 10 -25 15 0 13 43 6
47 -8z m-137 -14 c63 -6 144 -15 179 -21 l63 -11 -6 -46 c-3 -25 -7 -47 -9
-48 -2 -2 -48 4 -102 13 -146 24 -599 24 -749 0 -60 -9 -110 -16 -111 -15 -1
2 -5 24 -7 50 l-5 47 71 12 c166 28 472 37 676 19z"/>
<path d="M1322 2320 c0 -19 2 -27 5 -17 2 9 2 25 0 35 -3 9 -5 1 -5 -18z"/>
<path d="M1340 2322 c0 -18 4 -32 10 -32 5 0 7 8 3 18 -6 15 -4 15 15 -2 l22
-19 -1 34 c-1 19 -3 26 -6 16 -5 -18 -6 -18 -24 -1 -18 16 -19 16 -19 -14z"/>
<path d="M1404 2335 c-10 -25 4 -47 28 -43 27 4 37 28 11 28 -15 0 -16 -2 -3
-11 12 -8 11 -10 -5 -7 -29 5 -26 34 3 31 13 -2 21 1 17 7 -9 15 -45 12 -51
-5z"/>
<path d="M1500 2321 c0 -21 5 -31 16 -31 11 0 14 8 12 27 -4 39 -28 42 -28 4z"/>
<path d="M1540 2342 c0 -6 5 -14 11 -17 6 -4 8 -13 5 -21 -3 -8 -2 -14 2 -14
4 0 13 14 19 30 6 17 7 30 2 30 -5 0 -9 -5 -9 -11 0 -8 -5 -8 -15 1 -9 8 -15
9 -15 2z"/>
<path d="M1210 2313 l0 -28 -18 23 -18 23 -12 -25 c-6 -14 -19 -26 -28 -26
-13 0 -14 3 -4 15 10 12 10 15 -1 15 -11 0 -11 2 1 10 13 8 12 10 -2 10 -13 0
-18 -8 -18 -30 0 -25 4 -30 24 -30 14 0 28 4 31 10 3 5 20 7 37 3 25 -5 29 -3
23 8 -7 11 -6 12 7 2 13 -11 15 -9 16 17 0 23 -4 30 -19 30 -14 0 -19 -7 -19
-27z"/>
<path d="M1260 2316 c0 -14 5 -26 11 -26 5 0 8 4 5 9 -4 5 -1 11 5 13 7 2 5 9
-5 17 -14 12 -16 10 -16 -13z"/>
<path d="M1297 2320 c-3 -11 -1 -23 4 -26 5 -3 9 6 9 20 0 31 -6 34 -13 6z"/>
<path d="M1616 2318 c-8 -32 9 -46 36 -29 16 10 23 10 26 2 5 -15 52 -14 52 2
0 9 3 8 9 -2 7 -11 10 -9 16 8 4 13 4 25 1 28 -3 4 -6 0 -6 -7 0 -9 -6 -7 -21
6 -16 15 -24 16 -39 6 -12 -7 -21 -8 -25 -2 -11 18 -43 10 -49 -12z m38 3 c3
-5 -1 -14 -9 -21 -13 -10 -15 -9 -15 9 0 21 14 28 24 12z m66 -17 c0 -8 -7
-14 -15 -14 -15 0 -21 21 -9 33 10 9 24 -2 24 -19z"/>
<path d="M1767 2303 c-7 -36 -2 -41 13 -13 8 14 8 26 2 32 -6 6 -11 -1 -15
-19z"/>
<path d="M1800 2311 c-6 -12 -8 -27 -4 -33 5 -8 11 -1 16 17 9 36 3 44 -12 16z"/>
<path d="M1071 2293 c-1 -23 3 -33 14 -33 8 0 15 5 15 10 0 6 -4 10 -9 10 -5
0 -12 10 -14 23 -3 16 -5 13 -6 -10z"/>
<path d="M1826 2304 c-7 -19 10 -44 29 -44 7 0 18 7 25 15 10 12 9 15 -4 15
-10 0 -14 -4 -11 -10 3 -5 0 -10 -8 -10 -20 0 -30 29 -12 36 8 3 19 3 25 -1 5
-3 10 -1 10 4 0 18 -47 13 -54 -5z"/>
<path d="M1140 2767 c0 -9 -10 -19 -22 -23 -19 -6 -19 -7 -5 -16 10 -5 17 -18
17 -30 0 -17 3 -18 15 -8 8 7 22 10 31 6 12 -4 14 -1 9 13 -3 11 -1 22 5 26
14 9 13 28 -2 22 -7 -2 -21 2 -30 11 -16 14 -18 13 -18 -1z"/>
<path d="M1787 2766 c-4 -9 -14 -16 -23 -16 -13 0 -14 -3 -5 -14 6 -7 9 -20 6
-28 -4 -11 2 -15 25 -15 22 0 30 5 30 19 0 10 5 18 10 18 6 0 10 5 10 10 0 6
-5 10 -11 10 -7 0 -17 7 -24 16 -11 16 -12 16 -18 0z"/>
<path d="M1160 2663 c0 -5 -16 -35 -35 -68 -20 -32 -34 -59 -33 -60 8 -6 47
-25 53 -25 3 0 10 12 16 28 l10 27 28 -31 c27 -30 28 -30 69 -16 38 12 57 32
32 32 -5 0 -39 28 -75 61 -36 34 -65 57 -65 52z m62 -80 c56 -54 48 -77 -10
-28 -36 30 -33 30 -62 5 -13 -11 -25 -18 -28 -16 -5 5 47 76 56 76 4 0 23 -17
44 -37z"/>
<path d="M1774 2652 c-6 -10 -37 -38 -67 -62 -31 -25 -56 -48 -57 -51 0 -9 48
-29 70 -29 10 0 27 12 38 27 l19 27 14 -26 c13 -23 17 -24 46 -14 l32 11 -30
44 c-16 25 -32 55 -35 68 -7 28 -15 29 -30 5z m34 -67 c23 -36 16 -47 -12 -20
-19 20 -20 19 -52 -10 -26 -24 -54 -33 -54 -18 0 8 81 82 90 82 3 1 15 -15 28
-34z"/>
<path d="M1458 2525 c-25 -33 -23 -35 23 -35 l40 0 -18 30 c-21 36 -23 36 -45
5z"/>
<path d="M1765 2519 c-10 -15 3 -25 16 -12 7 7 7 13 1 17 -6 3 -14 1 -17 -5z"/>
<path d="M1170 2510 c0 -5 7 -10 16 -10 8 0 12 5 9 10 -3 6 -10 10 -16 10 -5
0 -9 -4 -9 -10z"/>
<path d="M1383 2454 c-27 -18 -30 -23 -16 -28 37 -15 132 -18 187 -6 l58 12
-33 20 c-49 30 -153 31 -196 2z m92 -14 c-3 -5 -10 -10 -16 -10 -5 0 -9 5 -9
10 0 6 7 10 16 10 8 0 12 -4 9 -10z"/>
<path d="M991 2446 c-13 -16 -5 -66 11 -66 11 0 78 39 78 45 0 5 -61 35 -70
35 -4 0 -13 -6 -19 -14z m39 -20 c0 -3 -4 -8 -10 -11 -5 -3 -10 -1 -10 4 0 6
5 11 10 11 6 0 10 -2 10 -4z"/>
<path d="M1902 2442 l-33 -18 39 -22 c22 -12 45 -22 51 -22 18 0 13 67 -5 74
-19 7 -12 9 -52 -12z m48 -22 c0 -5 -7 -7 -15 -4 -8 4 -15 8 -15 10 0 2 7 4
15 4 8 0 15 -4 15 -10z"/>
<path d="M1057 2137 c-16 -11 -18 -37 -18 -254 0 -160 3 -248 11 -262 12 -24
52 -28 69 -7 10 12 18 11 54 -7 106 -51 231 6 279 127 35 90 0 186 -96 264 -9
7 -16 9 -16 5 0 -4 -5 -2 -12 5 -17 17 -112 15 -155 -3 -19 -8 -36 -15 -37
-15 -1 0 -3 30 -4 67 -3 88 -28 115 -75 80z m53 -108 l0 -101 30 25 c71 60
165 60 232 -1 23 -20 47 -51 55 -69 16 -39 17 -111 2 -150 -23 -62 -109 -123
-174 -123 -41 0 -109 33 -129 61 l-16 23 0 -37 c0 -33 -3 -37 -25 -37 l-25 0
0 255 0 255 25 0 25 0 0 -101z"/>
<path d="M1173 1930 c-47 -28 -66 -72 -61 -137 4 -46 10 -60 42 -91 33 -34 41
-37 94 -37 39 0 67 6 86 18 32 22 30 31 -5 19 -34 -13 -77 5 -94 39 -22 42
-18 67 14 100 39 39 84 39 124 2 l28 -28 -10 28 c-37 97 -137 137 -218 87z
m121 -10 c33 -12 34 -30 1 -30 -14 0 -39 -13 -57 -29 -29 -26 -33 -35 -33 -81
0 -39 4 -54 18 -61 17 -10 24 -39 9 -39 -21 0 -92 62 -98 84 -26 105 64 193
160 156z"/>
<path d="M777 2081 c-29 -33 -77 -132 -77 -161 0 -5 -9 -7 -19 -5 -27 5 -45
-52 -37 -111 3 -26 2 -44 -4 -44 -13 0 -13 -100 0 -120 5 -9 5 -19 -2 -27 -14
-17 -2 -79 23 -120 16 -26 18 -35 8 -51 -16 -26 -5 -64 32 -103 24 -26 29 -37
21 -49 -13 -22 8 -70 42 -97 32 -25 33 -31 4 -28 -13 1 -23 3 -23 5 0 1 -11 4
-25 6 -17 3 -29 -2 -38 -16 -11 -18 -7 -27 29 -75 46 -61 46 -54 -9 -113 -27
-30 -33 -52 -19 -66 38 -38 210 -49 319 -22 62 16 69 16 84 2 26 -26 49 -35
106 -42 29 -3 72 -12 96 -20 65 -21 122 -18 157 10 29 23 29 23 55 4 15 -10
42 -22 61 -25 19 -2 36 -5 39 -6 21 -3 83 18 87 30 4 11 15 13 43 8 49 -8 137
20 145 46 6 19 19 19 80 1 36 -11 49 -12 143 -12 92 -1 160 12 174 34 12 18 9
53 -5 59 -7 2 -21 20 -31 39 l-18 34 31 52 c17 29 31 59 31 67 0 24 -27 43
-55 37 l-26 -5 25 38 c24 35 25 39 9 50 -16 12 -14 16 20 54 45 50 56 85 33
110 -11 12 -14 21 -7 25 28 17 59 132 38 139 -9 3 -9 10 0 29 6 13 9 42 7 64
-3 21 -6 68 -8 105 -4 76 -19 113 -44 104 -12 -3 -18 1 -19 13 -2 28 -41 110
-69 147 -23 30 -28 33 -50 23 -14 -6 -24 -20 -25 -32 0 -12 -1 -39 -3 -61 -1
-22 2 -50 7 -61 7 -16 4 -29 -12 -51 -21 -27 -21 -30 -5 -83 9 -30 14 -68 11
-85 -2 -16 -1 -39 3 -50 4 -11 3 -29 -3 -40 -6 -11 -10 -38 -10 -60 1 -22 -2
-44 -7 -50 -4 -5 -11 -27 -15 -49 -4 -21 -16 -47 -26 -57 -24 -24 -49 -73 -49
-97 0 -12 -11 -24 -30 -32 -16 -7 -30 -18 -30 -24 0 -7 -6 -20 -13 -29 -11
-16 -17 -16 -87 3 -41 11 -82 24 -90 27 -8 4 -19 7 -25 8 -5 1 -41 5 -80 9
-38 4 -86 10 -105 13 -33 6 -31 7 35 23 95 22 146 51 211 119 25 26 38 32 56
28 27 -7 41 0 56 29 9 17 8 24 -6 37 -17 15 -76 47 -87 47 -3 0 -34 -28 -69
-62 -34 -35 -85 -74 -112 -88 -43 -22 -62 -25 -154 -25 -98 0 -108 2 -156 30
-29 17 -70 52 -93 79 -22 28 -47 54 -55 58 -15 8 -84 -18 -98 -37 -23 -31 10
-80 47 -71 16 4 29 -3 51 -27 63 -71 130 -106 232 -122 42 -7 49 -16 14 -21
-9 -2 -37 -6 -62 -10 -25 -4 -57 -7 -72 -7 -16 0 -28 -4 -28 -8 0 -5 -9 -9
-19 -9 -11 0 -57 -12 -101 -26 -64 -20 -84 -23 -96 -13 -8 6 -14 17 -14 24 0
7 -13 24 -28 37 -15 13 -36 43 -46 68 -9 25 -26 52 -37 61 -13 9 -22 31 -25
59 -3 25 -10 47 -15 51 -6 3 -10 31 -10 62 0 31 -4 59 -8 61 -10 7 -7 138 4
155 4 7 9 28 12 46 3 24 -1 36 -15 46 -11 8 -17 22 -15 34 2 11 6 48 10 81 5
53 3 64 -15 82 -11 11 -18 23 -14 26 3 3 3 6 0 6 -3 0 -21 -17 -41 -39z m46
-30 c2 -21 1 -60 -4 -87 -9 -45 -49 -126 -69 -139 -17 -11 -30 65 -19 114 10
44 66 151 80 151 3 0 9 -18 12 -39z m1355 -8 c17 -27 36 -68 43 -93 12 -47 6
-120 -11 -120 -16 0 -58 64 -69 105 -13 48 -15 155 -2 155 5 0 23 -21 39 -47z
m-1468 -193 c13 -26 20 -59 20 -97 l-1 -58 -24 28 c-31 34 -48 97 -39 142 7
41 17 38 44 -15z m1580 -8 c0 -50 -34 -133 -57 -140 -25 -7 -16 96 13 149 15
27 31 46 35 43 5 -3 9 -26 9 -52z m-1450 -13 c-12 -45 -90 -134 -97 -112 -10
27 20 95 59 135 45 48 55 41 38 -23z m1355 -36 c9 -18 15 -45 13 -59 l-3 -25
-33 28 c-33 27 -77 127 -65 146 8 13 69 -50 88 -90z m-1371 -85 c-4 -24 -11
-52 -17 -63 -15 -31 -49 -65 -58 -59 -5 3 -9 0 -9 -6 0 -17 -36 6 -59 39 -26
36 -44 121 -27 121 18 0 76 -81 76 -107 0 -31 15 -29 18 3 2 30 18 61 45 92
30 32 38 27 31 -20z m1355 -5 c21 -32 31 -59 31 -85 0 -35 -2 -38 -19 -29 -25
14 -61 89 -61 129 0 44 13 40 49 -15z m126 0 c-9 -48 -27 -82 -59 -112 l-26
-24 0 37 c0 43 12 70 48 109 35 37 46 34 37 -10z m-1465 -85 c0 -44 -22 -99
-50 -131 l-29 -32 -1 45 c0 34 8 56 33 92 35 53 47 59 47 26z m1346 -65 c8
-18 14 -43 15 -55 1 -19 2 -18 10 7 8 29 84 113 93 104 12 -12 -20 -94 -49
-125 -38 -40 -44 -41 -77 -14 -35 27 -58 80 -58 132 l1 43 25 -30 c14 -16 32
-44 40 -62z m-1482 15 c32 -38 56 -101 43 -114 -10 -10 -45 16 -65 48 -24 39
-39 108 -24 108 6 0 26 -19 46 -42z m489 -57 c30 -45 97 -95 159 -117 65 -24
190 -21 259 5 61 23 135 82 158 125 16 29 29 31 78 14 20 -7 33 -19 33 -29 0
-25 -16 -32 -40 -19 -19 10 -29 4 -85 -48 -89 -83 -149 -106 -280 -106 -132 0
-195 23 -278 105 -50 48 -63 56 -79 48 -21 -11 -38 -4 -38 16 0 16 45 44 71
45 9 0 28 -18 42 -39z m-333 -64 c0 -47 -24 -117 -40 -117 -4 0 -10 10 -14 23
-11 42 -6 88 15 129 25 50 39 38 39 -35z m1275 33 c19 -41 24 -117 11 -139
-12 -18 -34 5 -47 49 -12 39 -5 130 10 130 4 0 16 -18 26 -40z m-1402 -69 c28
-19 54 -46 67 -70 11 -23 27 -41 35 -41 8 0 15 -7 15 -17 0 -15 -1 -15 -18 0
-10 10 -24 17 -31 17 -29 0 -74 35 -102 78 -46 72 -39 78 34 33z m47 13 c0 -8
-4 -12 -10 -9 -5 3 -10 10 -10 16 0 5 5 9 10 9 6 0 10 -7 10 -16z m1420 8 c0
-13 -12 -22 -22 -16 -10 6 -1 24 13 24 5 0 9 -4 9 -8z m80 -5 c0 -15 -48 -85
-71 -104 -23 -19 -69 -27 -69 -13 0 21 49 79 88 105 43 28 52 30 52 12z
m-1355 -95 c14 -52 3 -132 -17 -132 -20 0 -40 74 -35 127 10 92 29 93 52 5z
m1149 37 c10 -49 7 -116 -6 -144 -36 -80 -64 60 -29 148 14 36 27 34 35 -4z
m-581 -66 c-7 -2 -21 -2 -30 0 -10 3 -4 5 12 5 17 0 24 -2 18 -5z m632 -23
c-5 -8 -11 -8 -17 -2 -6 6 -7 16 -3 22 5 8 11 8 17 2 6 -6 7 -16 3 -22z
m-1342 -11 c42 -11 117 -73 117 -95 0 -17 -4 -17 -52 -4 -48 14 -145 110 -110
110 4 0 24 -5 45 -11z m233 -66 c4 -13 9 -23 12 -23 3 0 47 14 99 30 150 48
258 63 413 57 136 -5 290 -36 356 -70 29 -15 29 -15 54 31 38 70 54 68 48 -6
l-4 -61 50 -6 c32 -4 79 -1 126 9 41 9 78 16 83 16 13 0 7 -18 -28 -80 l-35
-62 35 -48 c19 -26 35 -52 35 -58 0 -5 -23 -16 -52 -22 -78 -19 -213 -7 -343
30 -83 25 -113 30 -125 21 -8 -6 -28 -18 -44 -27 l-29 -16 6 37 c9 55 -16 57
-60 5 -20 -23 -45 -45 -57 -49 -49 -19 -66 -22 -66 -12 0 18 52 72 88 90 l35
18 -65 7 c-36 3 -98 3 -137 0 l-70 -7 39 -20 c61 -30 110 -107 58 -91 -46 14
-78 35 -104 69 -27 36 -72 50 -60 19 27 -70 15 -80 -38 -34 l-35 31 -88 -34
c-107 -42 -175 -57 -253 -57 -52 0 -158 16 -169 26 -2 2 17 28 43 59 l47 55
-46 60 c-26 34 -45 63 -43 65 2 3 20 0 39 -5 38 -11 135 -13 192 -3 37 6 38 7
36 42 -1 20 -1 50 0 66 l2 30 25 -30 c13 -16 27 -40 30 -52z m1204 68 c0 -16
-51 -71 -79 -85 -39 -20 -91 -28 -91 -14 0 19 75 84 111 95 44 14 59 15 59 4z
m-690 -277 c0 -1 -9 -11 -19 -23 -11 -13 -22 -28 -24 -34 -3 -7 -15 0 -31 17
-14 16 -23 33 -20 38 4 6 94 9 94 2z m-193 -80 c-12 -12 -37 5 -30 21 5 15 7
15 21 1 9 -9 13 -18 9 -22z m309 16 c0 -11 -6 -20 -13 -20 -20 0 -24 18 -6 29
10 6 18 11 18 11 1 0 1 -9 1 -20z m-395 -12 c43 -12 48 -22 20 -38 -44 -23
-202 3 -175 29 21 20 103 25 155 9z m573 3 c43 -9 42 -26 -2 -39 -52 -16 -111
-15 -142 3 l-25 14 35 15 c36 16 83 18 134 7z m-386 -37 c33 -9 27 -20 -20
-39 -32 -12 -54 -15 -88 -9 -25 5 -51 8 -57 7 -21 -1 -2 18 31 33 33 14 96 18
134 8z m211 -5 c42 -15 39 -26 -9 -39 -45 -12 -99 -5 -127 16 -16 12 -16 15
-3 24 20 13 99 13 139 -1z"/>
<path d="M1306 1234 c-43 -8 -144 -36 -225 -62 -135 -43 -154 -47 -247 -47
l-102 0 40 -49 39 -50 -47 -47 c-25 -26 -41 -49 -36 -53 22 -13 162 -18 224
-7 35 6 93 23 129 37 93 39 190 62 309 75 126 14 234 0 427 -55 161 -46 240
-59 328 -54 98 6 102 11 60 61 -19 22 -35 45 -35 50 0 6 14 34 30 64 17 29 30
55 30 58 0 2 -12 0 -27 -7 -16 -6 -68 -11 -118 -11 -77 0 -101 4 -170 30 -110
43 -136 50 -239 68 -108 18 -264 18 -370 -1z m233 -30 c-17 -18 -20 -27 -12
-35 9 -9 7 -21 -5 -47 -13 -27 -14 -36 -4 -39 29 -10 8 -21 -48 -25 -58 -3
-61 -2 -58 19 2 12 -6 30 -17 41 -18 17 -21 17 -32 3 -19 -26 -36 -1 -23 34 7
20 7 31 -1 41 -18 22 21 31 139 32 l83 0 -22 -24z m114 16 c20 0 19 -2 -7 -15
-31 -16 -46 -12 -46 12 0 10 6 13 16 9 9 -3 25 -6 37 -6z m109 -26 c93 -22 97
-25 63 -35 -22 -6 -34 -4 -47 7 -11 11 -26 14 -44 10 -27 -7 -58 9 -48 25 7
11 1 12 76 -7z m-164 -18 c2 -10 -6 -31 -17 -47 -21 -29 -21 -29 -1 -29 11 0
20 -4 20 -10 0 -13 -57 -13 -64 -1 -4 5 5 23 19 39 26 31 37 68 13 44 -16 -16
-28 -15 -28 2 0 30 53 32 58 2z m-258 4 c0 -5 -9 -10 -21 -10 -14 0 -19 -5
-16 -14 18 -45 18 -86 3 -102 -10 -9 -20 -13 -24 -10 -3 4 -1 11 6 15 8 5 10
22 6 54 -5 37 -11 47 -25 47 -29 0 -22 18 9 23 50 8 62 7 62 -3z m350 -52 c0
-37 -36 -74 -56 -57 -22 18 -17 76 8 101 20 20 22 20 35 3 7 -11 13 -31 13
-47z m-515 42 c-3 -5 -11 -10 -16 -10 -6 0 -7 5 -4 10 3 6 11 10 16 10 6 0 7
-4 4 -10z m55 6 c0 -2 3 -12 6 -21 5 -12 2 -16 -11 -13 -31 5 -27 -17 5 -29
39 -15 41 -49 3 -64 -20 -7 -28 -6 -35 3 -14 23 -9 30 17 24 35 -9 31 10 -5
23 -34 11 -39 35 -12 62 16 17 32 24 32 15z m537 -20 c-3 -7 -8 -33 -12 -58
-5 -36 -12 -46 -37 -57 -35 -16 -62 -1 -39 22 11 10 14 10 18 0 3 -7 9 -13 13
-13 12 0 33 78 24 91 -4 6 0 15 7 20 21 13 32 11 26 -5z m159 -18 c40 -19 67
-23 151 -23 106 0 115 -4 88 -39 -21 -28 -18 -55 10 -92 14 -18 21 -35 17 -38
-14 -8 -171 1 -230 13 -30 6 -69 18 -87 27 l-33 16 22 33 c23 33 25 88 5 101
-12 7 -12 24 0 24 5 0 30 -10 57 -22z m-766 2 c0 -5 -9 -10 -20 -10 -11 0 -23
-7 -27 -15 -8 -22 2 -28 26 -16 13 7 22 8 26 1 3 -6 -5 -14 -19 -20 -38 -14
-35 -41 4 -33 41 8 38 -10 -5 -26 -19 -7 -35 -16 -35 -21 0 -11 -63 -35 -151
-55 -54 -13 -91 -16 -132 -11 -31 4 -57 10 -57 13 0 3 11 18 25 35 28 34 32
63 10 84 -25 25 -18 30 48 30 34 0 80 6 102 13 22 6 45 13 52 14 7 2 16 6 19
10 11 10 44 8 44 -2 0 -6 -5 -13 -10 -16 -7 -4 -8 -11 -2 -18 5 -7 13 -27 17
-44 6 -32 21 -50 31 -40 5 5 -9 68 -23 103 -3 8 4 17 18 23 32 13 59 13 59 1z
m694 -16 c11 -29 6 -62 -13 -85 -16 -20 -21 -21 -35 -10 -20 17 -21 60 0 89
18 26 39 29 48 6z m-466 -37 c2 -10 -3 -17 -12 -17 -18 0 -29 16 -21 31 9 14
29 6 33 -14z m227 -27 c3 -5 1 -10 -4 -10 -6 0 -11 5 -11 10 0 6 2 10 4 10 3
0 8 -4 11 -10z m159 -26 c9 -3 16 -10 16 -14 0 -10 -38 -1 -46 11 -6 10 7 12
30 3z"/>
<path d="M1646 1144 c-10 -27 -7 -56 7 -52 14 5 23 68 9 68 -6 0 -13 -7 -16
-16z"/>
<path d="M1823 1109 c-16 -16 -17 -59 -3 -59 14 0 22 23 18 50 -2 17 -5 19
-15 9z"/>
<path d="M1690 2019 c-87 -9 -145 -50 -185 -128 -17 -34 -19 -154 -3 -176 51
-69 105 -114 148 -122 48 -8 90 -5 119 10 39 19 71 22 71 6 0 -21 54 -4 67 21
7 14 13 19 13 11 0 -8 3 -11 6 -8 4 4 2 13 -4 20 -7 8 -13 75 -14 177 -3 142
-5 164 -20 174 -13 8 -23 8 -39 -2 -23 -14 -71 -8 -92 11 -8 8 -31 10 -67 6z
m59 -29 c19 -5 50 -24 69 -42 l34 -33 -7 38 c-7 35 -6 37 19 37 l26 0 0 -185
0 -185 -26 0 c-24 0 -26 3 -20 30 7 36 4 37 -30 5 -47 -44 -120 -55 -182 -30
-163 69 -160 302 5 360 46 17 68 18 112 5z"/>
<path d="M1641 1932 c-133 -67 -85 -272 63 -272 83 0 140 59 140 144 0 112
-105 178 -203 128z m126 -28 c21 -13 60 -74 48 -74 -4 0 -17 13 -30 28 -19 23
-33 29 -73 31 -41 1 -55 -3 -76 -22 -14 -13 -30 -35 -35 -48 -9 -23 -10 -23
-10 7 -2 79 101 125 176 78z m-1 -58 c59 -50 19 -150 -60 -150 -50 0 -86 36
-86 86 0 79 86 117 146 64z m-169 -78 c-3 -8 -6 -5 -6 6 -1 11 2 17 5 13 3 -3
4 -12 1 -19z"/>
<path d="M880 694 c-14 -8 -44 -14 -67 -14 -30 0 -45 -5 -52 -17 -14 -27 -14
-32 3 -58 10 -15 12 -26 6 -30 -6 -4 -7 -12 -3 -18 4 -7 8 -47 9 -90 0 -46 6
-83 13 -90 8 -8 42 -11 106 -9 58 2 102 -1 115 -8 34 -18 57 9 59 71 0 28 -4
59 -9 68 -6 12 -4 34 5 66 24 77 20 100 -16 116 -18 7 -53 13 -78 14 -26 1
-51 4 -56 7 -6 2 -21 -1 -35 -8z m168 -37 c7 -6 12 -20 10 -31 -2 -16 -11 -21
-36 -23 -47 -2 -53 -13 -8 -13 34 0 37 -2 31 -22 -10 -31 -14 -35 -55 -46 -33
-10 -34 -10 -7 -11 45 -2 67 -18 67 -51 0 -16 -5 -32 -10 -35 -8 -5 -8 -11 0
-20 14 -17 -4 -30 -28 -20 -26 11 -166 13 -179 3 -16 -12 -34 -1 -27 16 3 8 1
17 -5 21 -22 13 0 115 25 115 7 0 16 5 19 11 5 7 -5 8 -29 4 -31 -6 -35 -5
-30 9 3 9 18 16 33 17 25 1 25 2 -6 11 -26 9 -33 16 -33 37 0 25 3 27 53 29
28 1 53 6 55 11 4 11 144 1 160 -12z"/>
<path d="M843 633 c-18 -2 -33 -8 -33 -12 0 -5 20 -6 45 -3 30 3 45 1 45 -7 0
-6 -7 -11 -15 -11 -8 0 -15 -4 -15 -10 0 -22 29 -8 44 20 14 30 14 30 -12 28
-15 0 -42 -3 -59 -5z"/>
<path d="M950 630 c0 -5 10 -8 23 -6 12 2 30 -1 40 -6 13 -6 17 -5 17 7 0 11
-11 15 -40 15 -22 0 -40 -4 -40 -10z"/>
<path d="M938 593 c7 -3 16 -2 19 1 4 3 -2 6 -13 5 -11 0 -14 -3 -6 -6z"/>
<path d="M945 561 c-3 -5 -1 -12 5 -16 5 -3 10 1 10 9 0 18 -6 21 -15 7z"/>
<path d="M985 561 c-6 -11 9 -23 19 -14 9 9 7 23 -3 23 -6 0 -12 -4 -16 -9z"/>
<path d="M883 553 c28 -7 14 -25 -23 -30 -43 -4 -53 -13 -14 -12 36 0 116 16
92 18 -10 0 -18 8 -18 16 0 10 -9 15 -27 14 -18 -1 -22 -3 -10 -6z"/>
<path d="M908 483 c45 -2 82 -8 82 -13 0 -5 -39 -11 -87 -13 l-88 -3 93 -2
c111 -2 118 -21 9 -24 -67 -2 -68 -2 -17 -5 85 -6 120 3 120 31 0 32 -16 36
-113 34 l-82 -2 83 -3z"/>
<path d="M1975 694 c-10 -11 -33 -18 -54 -19 -27 0 -38 -6 -47 -23 -6 -13 -17
-29 -23 -35 -6 -6 -11 -28 -11 -49 0 -32 5 -40 30 -53 31 -16 37 -29 19 -40
-6 -4 -8 -13 -5 -21 3 -7 -3 -18 -14 -24 -21 -11 -17 -37 9 -57 25 -19 231
-17 259 3 26 18 28 30 7 50 -8 9 -15 24 -15 35 0 10 -4 19 -10 19 -18 0 -10
31 15 56 31 31 32 63 3 100 -43 56 -46 57 -78 44 -27 -11 -32 -10 -48 10 -18
22 -19 22 -37 4z m35 -39 c0 -30 20 -33 45 -5 23 26 49 27 42 1 -3 -13 3 -22
19 -30 24 -11 29 -26 18 -55 -10 -25 -34 -19 -34 9 0 22 -4 25 -37 25 -20 0
-65 -5 -99 -11 -52 -9 -63 -14 -66 -32 -2 -12 -11 -23 -20 -25 -15 -3 -18 4
-18 38 0 35 3 41 18 38 23 -4 26 1 16 25 -3 10 -4 20 -1 24 11 10 39 -7 44
-26 7 -26 33 -15 33 13 0 26 8 36 27 36 7 0 13 -11 13 -25z m63 -91 c22 -8 23
-60 1 -68 -9 -3 -24 -6 -35 -6 -10 0 -19 -4 -19 -10 0 -5 20 -10 45 -10 33 0
45 -4 45 -15 0 -11 -12 -15 -45 -15 -65 0 -55 -18 12 -22 32 -2 58 -8 60 -15
3 -9 -31 -13 -126 -15 -119 -3 -131 -1 -131 15 0 14 9 17 55 17 30 0 55 5 55
10 0 6 -20 10 -45 10 -33 0 -45 4 -45 15 0 11 11 15 40 15 22 0 40 5 40 10 0
6 -8 10 -18 10 -33 0 -54 23 -47 52 6 22 14 28 43 31 42 4 91 1 115 -9z"/>
<path d="M1978 542 c-50 -6 -29 -22 27 -22 30 0 55 4 55 9 0 10 -44 17 -82 13z"/>
<path d="M1544 688 c-40 -10 -54 -34 -54 -88 0 -25 -5 -51 -11 -57 -8 -8 -9
-31 -4 -68 7 -63 27 -82 83 -83 17 0 44 -10 58 -21 34 -27 77 -24 100 6 9 13
24 23 33 23 10 0 26 6 36 14 17 12 19 27 18 125 -2 154 -4 156 -132 156 -54 1
-111 -3 -127 -7z m119 -20 l28 1 -4 -59 c-5 -60 -5 -60 22 -59 16 1 20 3 9 6
-10 2 -18 10 -18 18 0 8 7 11 20 8 11 -3 20 0 20 6 0 6 -9 11 -20 11 -11 0
-20 5 -20 10 0 6 9 10 20 10 11 0 20 5 20 10 0 6 -9 10 -21 10 -28 0 -21 34 7
38 44 6 68 -55 45 -113 -5 -11 -4 -25 1 -32 14 -18 5 -57 -14 -61 -11 -2 -18
5 -20 20 -3 22 -6 23 -98 22 -84 -2 -96 -4 -108 -23 -19 -28 -28 -26 -37 6 -4
18 -2 31 7 38 8 6 13 31 13 64 l0 54 40 12 c22 7 49 10 60 7 11 -3 33 -5 48
-4z m35 -165 c17 -4 22 -11 19 -24 -4 -14 2 -19 29 -21 47 -4 48 -22 2 -26
-29 -2 -37 -8 -40 -25 -2 -18 -11 -23 -45 -25 -34 -2 -43 0 -43 12 0 10 9 16
25 16 14 0 25 5 25 10 0 9 -124 5 -157 -6 -7 -2 -13 5 -13 16 0 16 11 19 90
26 50 3 90 10 90 15 0 5 -31 6 -70 3 -48 -5 -70 -3 -70 5 0 12 24 19 85 24 22
2 42 4 45 5 3 1 15 -1 28 -5z"/>
<path d="M1575 635 l-30 -13 28 -1 c18 -1 27 -6 27 -17 0 -12 -6 -15 -25 -10
-14 4 -25 2 -25 -4 0 -5 12 -10 26 -10 16 0 24 -5 21 -12 -2 -7 -14 -13 -26
-12 -11 0 -21 -3 -21 -8 0 -13 60 -9 61 5 0 6 1 31 3 55 3 47 3 47 -39 27z"/>
<path d="M1640 610 c-12 -8 -11 -10 8 -10 12 0 22 5 22 10 0 13 -11 13 -30 0z"/>
<path d="M1640 549 c0 -5 5 -7 10 -4 6 3 10 8 10 11 0 2 -4 4 -10 4 -5 0 -10
-5 -10 -11z"/>
<path d="M1154 663 c-20 -22 -22 -33 -19 -111 2 -48 4 -94 5 -102 1 -8 -1 -24
-4 -35 -4 -11 -2 -26 3 -34 12 -18 57 -17 79 2 24 21 116 16 142 -8 18 -16 21
-16 44 -2 22 15 24 20 15 52 -7 26 -7 40 1 50 15 19 16 122 2 157 -18 44 -60
59 -159 57 -78 -2 -90 -5 -109 -26z m184 2 c53 -9 72 -39 72 -111 0 -45 -5
-68 -19 -85 -18 -22 -18 -23 3 -40 19 -16 20 -19 5 -34 -15 -15 -18 -15 -35 7
-16 20 -28 23 -84 23 -55 0 -68 -3 -83 -22 -18 -23 -47 -21 -47 3 0 7 9 18 21
24 20 11 20 12 3 31 -24 27 -31 124 -12 169 15 34 16 35 79 37 35 2 79 1 97
-2z"/>
<path d="M1223 623 c-12 -2 -24 -11 -27 -19 -4 -12 4 -13 47 -9 29 3 58 2 66
-3 26 -18 0 -32 -60 -32 -46 0 -59 -3 -59 -15 0 -12 14 -15 65 -15 51 0 65 -3
65 -15 0 -12 -13 -15 -60 -15 -33 0 -60 -4 -60 -8 0 -37 116 -46 150 -12 28
28 29 125 1 140 -19 10 -84 11 -128 3z m123 -90 c-11 -11 -19 6 -11 24 8 17 8
17 12 0 3 -10 2 -21 -1 -24z"/>
<path d="M816 330 c-21 -4 -42 -13 -47 -21 -11 -17 -12 -120 -1 -135 10 -16
79 -26 100 -15 13 7 22 7 29 0 6 -6 14 -5 23 6 14 16 50 20 66 6 5 -5 35 -11
67 -14 48 -5 62 -2 76 12 17 17 19 17 42 0 26 -19 49 -10 49 20 0 9 13 35 29
57 28 38 29 40 11 61 -18 22 -18 22 -43 3 -24 -19 -24 -19 -47 5 -16 17 -26
21 -31 14 -5 -8 -12 -8 -28 0 -22 12 -71 5 -82 -12 -4 -6 -20 -4 -43 4 -33 12
-38 11 -58 -9 l-22 -22 -26 23 c-21 20 -31 22 -64 17z m58 -36 c11 -11 13 -21
7 -32 -6 -10 -6 -23 0 -34 17 -32 -7 -57 -46 -48 -5 1 -20 2 -32 2 -21 0 -23
5 -23 58 0 31 2 59 4 61 12 12 76 7 90 -7z m120 -6 c19 -29 31 -104 18 -112
-5 -3 -12 12 -16 35 -4 23 -12 51 -18 62 -11 21 -11 21 -29 -2 -24 -30 -24
-41 1 -41 11 0 20 -7 20 -15 0 -11 -7 -14 -25 -9 -20 5 -27 2 -33 -17 -13 -34
-23 -7 -11 33 11 42 45 88 64 88 8 0 21 -10 29 -22z m126 6 c7 -7 10 -24 7
-36 -4 -12 -1 -28 5 -35 17 -21 -10 -45 -45 -41 -17 2 -32 9 -35 15 -2 9 5 11
27 7 24 -5 31 -3 31 9 0 8 -6 17 -12 20 -10 3 -10 8 1 21 18 21 3 37 -27 30
-21 -6 -27 -28 -25 -91 1 -7 -3 -13 -8 -13 -5 0 -9 28 -9 63 l0 63 39 1 c24 1
44 -4 51 -13z m54 -16 l19 -32 28 33 c15 18 30 28 33 22 4 -5 -7 -25 -24 -44
-16 -19 -30 -44 -30 -55 0 -12 -4 -24 -10 -27 -6 -4 -10 6 -10 22 0 15 -9 42
-20 58 -21 31 -26 55 -12 55 4 0 16 -14 26 -32z"/>
<path d="M823 279 c-18 -6 -23 -16 -23 -42 0 -29 3 -33 29 -35 35 -3 49 13 24
26 -15 9 -15 12 -3 26 17 22 2 36 -27 25z"/>
<path d="M1471 319 c-30 -18 -35 -18 -50 -5 -12 11 -26 13 -46 8 -40 -10 -92
-110 -75 -142 11 -21 35 -27 45 -10 8 13 62 13 70 0 4 -6 16 -8 26 -5 11 4 25
2 32 -3 15 -13 106 -7 120 7 15 15 62 14 75 -2 7 -8 30 -12 64 -10 59 3 76 3
161 0 44 -1 62 2 74 15 8 9 12 21 9 26 -3 6 1 13 9 16 11 4 19 -3 25 -19 12
-31 35 -41 55 -25 12 10 18 10 30 0 13 -11 20 -11 40 0 13 7 22 17 19 22 -4 5
7 29 24 52 25 35 28 44 17 59 -15 21 -33 22 -57 0 -17 -15 -20 -15 -39 6 -23
25 -59 23 -90 -5 -15 -14 -19 -13 -33 8 -9 13 -20 22 -24 20 -4 -2 -28 0 -55
3 -34 5 -54 3 -70 -8 -14 -9 -29 -11 -42 -6 -31 12 -80 10 -93 -3 -9 -9 -15
-9 -24 0 -17 17 -48 15 -69 -4 -15 -14 -20 -13 -50 5 -40 25 -35 25 -78 0z
m-65 -17 c18 -12 32 -44 35 -82 4 -48 -15 -50 -21 -3 -10 66 -37 85 -58 39
-10 -22 -8 -25 10 -28 12 -2 23 -9 26 -17 3 -10 -3 -12 -27 -6 -24 5 -31 3
-31 -9 0 -17 -16 -30 -23 -19 -7 10 16 76 37 108 17 25 32 31 52 17z m135 -2
c32 -17 22 -28 -20 -23 -37 5 -41 3 -47 -21 -4 -16 -1 -32 6 -41 14 -17 46
-20 55 -5 3 6 10 10 16 10 17 0 9 -20 -15 -35 -20 -14 -29 -14 -48 -4 -13 7
-26 17 -30 23 -14 21 -8 66 12 86 22 22 42 25 71 10z m122 -8 c21 -23 35 -112
18 -112 -6 0 -11 9 -11 20 0 11 -7 37 -16 58 l-15 37 -20 -24 c-24 -30 -24
-41 1 -41 12 0 20 -7 20 -16 0 -12 -6 -15 -24 -10 -19 5 -26 1 -31 -15 -4 -13
-11 -17 -16 -12 -11 11 14 89 38 115 20 23 36 23 56 0z m127 -2 c22 -22 26
-60 10 -91 -8 -14 -21 -19 -55 -19 l-45 0 0 63 0 64 35 1 c23 1 42 -5 55 -18z
m130 5 c0 -11 -11 -15 -40 -15 -29 0 -40 -4 -40 -15 0 -10 10 -15 30 -15 17 0
30 -4 30 -10 0 -5 -13 -10 -30 -10 -20 0 -30 -5 -30 -15 0 -10 11 -15 35 -15
19 0 35 -4 35 -10 0 -5 -20 -10 -45 -10 l-45 0 0 65 0 65 50 0 c38 0 50 -4 50
-15z m37 1 c-3 -8 4 -18 17 -24 19 -8 27 -6 44 11 28 27 34 19 40 -48 4 -46 2
-55 -12 -55 -12 0 -16 10 -16 42 0 41 0 41 -21 22 -19 -17 -21 -18 -30 -1 -17
30 -29 18 -29 -29 0 -27 -4 -43 -10 -39 -5 3 -10 35 -10 71 0 52 3 64 16 64
10 0 14 -6 11 -14z m140 -16 l19 -30 24 25 c24 25 40 32 40 16 0 -4 -12 -21
-27 -37 -16 -16 -28 -38 -28 -49 0 -30 -20 -30 -23 1 -2 14 -12 40 -23 58 -21
34 -24 46 -10 46 5 0 18 -14 28 -30z m-569 -37 c-5 -25 -28 -28 -28 -4 0 12 6
21 16 21 9 0 14 -7 12 -17z"/>
<path d="M1720 240 c0 -35 3 -40 24 -40 32 0 50 24 42 55 -5 20 -13 25 -36 25
-28 0 -30 -2 -30 -40z m36 -7 c-10 -10 -19 5 -10 18 6 11 8 11 12 0 2 -7 1
-15 -2 -18z"/>
</g>
</svg>
