<?xml version="1.0" standalone="no"?>
<!DOCTYPE svg PUBLIC "-//W3C//DTD SVG 20010904//EN"
 "http://www.w3.org/TR/2001/REC-SVG-20010904/DTD/svg10.dtd">
<svg version="1.0" xmlns="http://www.w3.org/2000/svg"
 width="300.000000pt" height="300.000000pt" viewBox="0 0 300.000000 300.000000"
 preserveAspectRatio="xMidYMid meet">
<metadata>
Created by potrace 1.10, written by Peter Selinger 2001-2011
</metadata>
<g transform="translate(0.000000,300.000000) scale(0.100000,-0.100000)"
fill="#000000" stroke="none">
<path d="M945 2248 c-133 -25 -265 -126 -323 -248 -43 -90 -53 -170 -52 -403
l2 -201 -49 3 c-68 3 -130 36 -165 86 l-30 43 -59 -41 c-32 -23 -59 -44 -59
-49 0 -4 28 -36 62 -71 72 -73 144 -107 243 -112 34 -2 60 -8 59 -14 -1 -6 -2
-92 -3 -191 l-1 -181 -26 -24 c-48 -45 -118 -28 -144 35 -7 16 -17 30 -21 30
-5 0 -37 -14 -70 -30 l-60 -31 22 -37 c32 -55 96 -110 143 -123 95 -26 197 6
253 80 47 60 53 96 53 301 l0 185 145 -3 145 -3 0 76 0 76 -145 -3 -145 -3 0
232 c0 203 2 239 19 282 25 68 71 121 138 161 54 33 62 35 165 39 l108 3 0 74
0 74 -77 -1 c-43 -1 -100 -6 -128 -11z m176 -30 c5 -79 11 -72 -76 -79 -44 -3
-103 -13 -130 -22 -73 -25 -148 -95 -185 -172 -32 -68 -35 -94 -40 -429 -3
-148 -4 -148 164 -148 l126 -1 0 -44 0 -43 -122 -1 c-68 -1 -126 -1 -130 -1
-24 4 -31 -39 -34 -223 -4 -207 -10 -238 -56 -287 -34 -38 -116 -68 -168 -63
-61 6 -127 41 -155 83 -14 20 -25 41 -25 47 0 10 78 52 83 44 1 -2 7 -13 13
-23 42 -76 149 -78 194 -4 18 30 20 50 20 208 0 207 -5 221 -73 219 -79 -3
-197 49 -246 108 -17 21 -31 42 -31 46 0 11 49 51 65 53 6 1 20 -11 31 -27 27
-41 105 -80 172 -86 83 -7 82 -8 82 258 0 122 5 242 11 267 31 140 147 269
279 308 49 15 56 16 115 23 96 10 115 8 116 -11z"/>
<path d="M1290 2185 l0 -75 119 0 c130 0 161 -7 205 -48 37 -35 56 -81 56
-136 0 -82 -42 -309 -65 -356 -31 -61 -89 -118 -150 -146 -44 -21 -64 -24
-177 -24 l-128 0 0 -75 0 -75 108 0 c184 0 289 38 392 140 78 79 108 147 138
315 34 196 34 286 -1 357 -70 143 -180 198 -398 198 l-99 0 0 -75z m331 15
c73 -37 135 -107 154 -175 19 -64 17 -119 -10 -305 -17 -118 -25 -151 -50
-201 -78 -152 -231 -242 -408 -239 -40 1 -84 1 -99 0 -27 0 -28 2 -28 45 l0
45 98 0 c116 -1 124 1 193 36 69 34 144 115 168 179 16 44 47 231 55 335 4 56
-21 115 -69 159 -53 48 -94 61 -213 62 l-92 1 0 43 c0 42 1 44 33 47 78 7 224
-10 268 -32z"/>
<path d="M1951 1838 c-6 -36 -11 -70 -11 -76 0 -9 35 -12 119 -12 167 0 244
-32 317 -132 73 -99 74 -109 74 -664 l0 -494 70 0 71 0 -3 300 c-2 165 -2 300
-1 300 0 0 24 -12 51 -26 29 -15 74 -28 108 -31 l59 -5 -1 72 -1 72 -42 3
c-55 4 -99 31 -136 83 -28 40 -30 50 -36 170 -8 149 -27 210 -95 302 -24 33
-71 80 -104 104 -86 64 -160 86 -306 93 l-121 6 -12 -65z m229 27 c14 -3 36
-8 50 -11 68 -14 172 -79 223 -140 40 -47 86 -132 97 -177 6 -23 11 -87 13
-142 2 -83 7 -109 27 -150 30 -60 95 -112 151 -121 39 -7 39 -7 39 -52 l0 -45
-49 6 c-28 3 -63 13 -80 21 -43 23 -70 20 -79 -6 -4 -13 -8 -143 -7 -290 l0
-268 -47 0 -47 0 0 488 c-1 395 -4 498 -15 537 -39 128 -166 243 -286 258 -25
3 -80 6 -122 6 -76 1 -78 2 -78 25 0 14 4 35 9 49 9 22 13 23 93 21 45 -2 94
-6 108 -9z"/>
<path d="M915 1775 c-16 -15 -25 -36 -25 -55 0 -19 9 -40 25 -55 15 -16 36
-25 55 -25 19 0 40 9 55 25 16 15 25 36 25 55 0 19 -9 40 -25 55 -15 16 -36
25 -55 25 -19 0 -40 -9 -55 -25z m98 -19 c21 -21 10 -71 -19 -85 -40 -18 -74
4 -74 49 0 20 3 40 7 43 12 12 71 7 86 -7z"/>
<path d="M1150 785 l0 -325 73 0 72 0 -2 322 -3 323 -70 3 -70 3 0 -326z m117
-2 l2 -293 -43 0 c-42 0 -44 1 -47 33 -2 17 -3 150 -1 295 l3 263 42 -3 42 -3
2 -292z"/>
<path d="M1510 713 l0 -253 73 0 72 0 -3 180 -3 180 210 0 c116 0 214 0 219 0
4 0 8 -80 9 -178 l2 -177 70 -3 71 -3 0 253 0 253 -360 0 -360 0 0 -252z m688
0 l2 -223 -44 0 -45 0 0 161 c0 135 -3 164 -16 179 -15 17 -37 18 -223 19
-176 0 -209 -2 -224 -16 -16 -14 -18 -36 -18 -180 l0 -163 -45 0 -45 0 -1 50
c-1 28 -1 61 -1 75 0 14 0 92 1 173 l1 149 328 -1 327 -1 3 -222z"/>
</g>
</svg>
