<?xml version="1.0" standalone="no"?>
<!DOCTYPE svg PUBLIC "-//W3C//DTD SVG 20010904//EN"
 "http://www.w3.org/TR/2001/REC-SVG-20010904/DTD/svg10.dtd">
<svg version="1.0" xmlns="http://www.w3.org/2000/svg"
 width="225.000000pt" height="225.000000pt" viewBox="0 0 225.000000 225.000000"
 preserveAspectRatio="xMidYMid meet">
<metadata>
Created by potrace 1.10, written by Peter Selinger 2001-2011
</metadata>
<g transform="translate(0.000000,225.000000) scale(0.100000,-0.100000)"
fill="#000000" stroke="none">
<path d="M675 2127 c-64 -21 -97 -42 -141 -89 -60 -62 -86 -120 -92 -204 -9
-139 49 -248 168 -313 61 -34 70 -36 155 -36 70 0 100 5 136 21 168 78 240
270 165 439 -33 73 -79 120 -152 156 -74 37 -173 47 -239 26z m229 -44 c137
-72 199 -218 157 -371 -16 -58 -85 -139 -151 -176 -49 -28 -64 -31 -140 -31
-73 0 -93 4 -142 28 -101 50 -168 161 -168 280 0 54 6 76 36 136 19 39 42 71
50 71 8 0 14 4 14 10 0 16 77 62 128 77 67 18 153 9 216 -24z"/>
<path d="M1158 1457 c-2 -202 -1 -366 2 -364 3 1 168 167 367 367 l363 365
-365 0 -365 0 -2 -368z m662 333 c0 -5 -5 -10 -10 -10 -6 0 -14 -8 -17 -17 -8
-21 -33 -48 -33 -36 0 4 -8 -4 -18 -20 -10 -15 -22 -24 -25 -20 -4 3 -7 -1 -7
-11 0 -9 -4 -14 -10 -11 -5 3 -10 0 -10 -8 0 -7 -11 -20 -25 -27 -13 -7 -23
-16 -21 -19 2 -3 -7 -16 -20 -29 -13 -12 -24 -21 -24 -18 0 3 -12 -7 -27 -22
-15 -15 -27 -30 -25 -34 1 -5 -5 -8 -15 -8 -9 0 -13 -3 -10 -7 4 -3 -5 -15
-20 -25 -16 -10 -25 -18 -21 -18 4 0 -3 -10 -15 -23 -12 -13 -25 -22 -29 -20
-5 2 -8 0 -8 -5 0 -13 -141 -157 -151 -154 -5 1 -9 -2 -9 -8 0 -17 -69 -82
-80 -75 -5 3 -10 11 -10 16 0 6 5 7 11 3 8 -4 8 -1 1 13 -7 12 -11 129 -12
311 l0 291 320 1 c212 0 320 -3 320 -10z"/>
<path d="M2130 1800 c0 -5 -9 -10 -20 -10 -17 0 -20 -7 -20 -40 l0 -40 70 0
70 0 0 40 c0 33 -3 40 -19 40 -11 0 -22 6 -24 13 -4 9 -8 8 -17 -3 -9 -11 -13
-12 -17 -2 -6 14 -23 16 -23 2z m0 -30 c0 -5 -4 -10 -10 -10 -5 0 -10 5 -10
10 0 6 5 10 10 10 6 0 10 -4 10 -10z m40 0 c0 -5 -4 -10 -10 -10 -5 0 -10 5
-10 10 0 6 5 10 10 10 6 0 10 -4 10 -10z m40 0 c0 -5 -7 -10 -16 -10 -8 0 -12
5 -9 10 3 6 10 10 16 10 5 0 9 -4 9 -10z m-80 -35 c0 -8 -4 -15 -10 -15 -5 0
-10 7 -10 15 0 8 5 15 10 15 6 0 10 -7 10 -15z m40 0 c0 -8 -4 -15 -10 -15 -5
0 -10 7 -10 15 0 8 5 15 10 15 6 0 10 -7 10 -15z m40 0 c0 -8 -4 -15 -9 -15
-13 0 -22 16 -14 24 11 11 23 6 23 -9z"/>
<path d="M1977 1794 c-4 -4 -7 -22 -7 -40 0 -18 -4 -36 -10 -39 -5 -3 -10 -15
-10 -26 0 -10 5 -19 10 -19 6 0 10 7 10 15 0 11 12 15 45 15 30 0 45 -4 45
-13 0 -9 -11 -12 -36 -9 -24 3 -39 0 -45 -9 -12 -19 -11 -139 1 -139 6 0 10
11 10 25 0 21 5 25 30 25 20 0 30 -5 30 -15 0 -8 -9 -15 -21 -15 -11 0 -17 -4
-14 -10 3 -5 15 -10 26 -10 17 0 19 7 19 68 0 37 4 72 9 78 6 5 7 33 3 64 l-7
55 -40 3 c-23 2 -44 0 -48 -4z m73 -23 c0 -5 -9 -11 -20 -14 -11 -3 -20 -12
-20 -21 0 -9 -7 -16 -15 -16 -10 0 -15 10 -15 30 0 28 3 30 35 30 19 0 35 -4
35 -9z m0 -36 c0 -8 -7 -15 -15 -15 -16 0 -20 12 -8 23 11 12 23 8 23 -8z m0
-85 c0 -5 -13 -10 -30 -10 -16 0 -30 5 -30 10 0 6 14 10 30 10 17 0 30 -4 30
-10z m0 -37 c0 -8 -12 -13 -30 -13 -18 0 -30 5 -30 13 0 8 12 14 30 14 18 0
30 -6 30 -14z"/>
<path d="M2090 1680 c0 -6 32 -10 75 -10 43 0 75 4 75 10 0 6 -32 10 -75 10
-43 0 -75 -4 -75 -10z"/>
<path d="M2090 1628 c0 -13 7 -32 15 -42 20 -27 19 -36 -5 -36 -11 0 -20 -4
-20 -8 0 -10 147 -9 157 1 3 4 -4 7 -17 7 -19 0 -20 2 -10 15 7 8 9 15 4 15
-4 0 -3 5 4 12 7 7 12 22 12 35 0 22 -4 23 -70 23 -66 0 -70 -1 -70 -22z m120
-3 c0 -11 -12 -15 -50 -15 -38 0 -50 4 -50 15 0 11 12 15 50 15 38 0 50 -4 50
-15z m-20 -55 c-6 -11 -18 -20 -28 -20 -9 0 -23 9 -30 20 -11 19 -10 20 28 20
38 0 40 -2 30 -20z"/>
<path d="M362 1068 l-362 -363 365 3 365 2 0 360 c0 198 -1 360 -3 360 -1 0
-165 -163 -365 -362z m344 -25 l0 -313 -312 0 c-292 0 -312 1 -309 18 2 9 4
20 4 25 1 4 6 7 12 7 16 0 39 26 31 35 -4 5 1 5 10 2 13 -4 15 -2 11 11 -3 9
-2 14 2 9 5 -4 17 5 27 20 10 16 18 25 18 22 0 -3 22 15 48 40 27 25 46 50 44
55 -3 5 2 7 11 3 10 -4 18 1 22 14 4 10 11 19 16 19 5 0 9 7 9 16 0 8 5 12 10
9 6 -3 10 1 10 9 0 9 7 16 16 16 9 0 18 8 21 19 2 10 15 24 29 31 13 7 21 17
18 22 -3 4 0 8 7 8 14 0 69 56 69 70 0 6 3 10 8 8 4 -2 24 13 45 34 20 21 35
38 32 38 -3 0 0 6 7 14 7 8 16 12 19 10 3 -2 11 7 18 19 7 13 20 23 30 23 16
0 18 -20 17 -313z"/>
<path d="M428 743 c39 -2 105 -2 145 0 39 1 7 3 -73 3 -80 0 -112 -2 -72 -3z"/>
<path d="M658 743 c6 -2 18 -2 25 0 6 3 1 5 -13 5 -14 0 -19 -2 -12 -5z"/>
<path d="M2080 1368 c0 -9 -16 -12 -56 -10 -32 2 -61 -1 -67 -7 -8 -8 2 -11
38 -11 47 0 48 0 30 -20 -10 -11 -26 -20 -37 -20 -10 0 -18 -5 -18 -11 0 -9
29 -10 104 -5 70 5 112 4 125 -4 33 -17 25 6 -11 34 l-33 26 38 0 c20 0 37 5
37 10 0 6 -28 10 -65 10 -37 0 -65 4 -65 10 0 6 -4 10 -10 10 -5 0 -10 -6 -10
-12z m65 -38 c-3 -5 -1 -10 4 -10 6 0 11 -3 11 -7 0 -5 -30 -9 -67 -11 l-67
-4 24 21 c26 21 107 30 95 11z"/>
<path d="M1978 1180 c-2 -59 0 -80 10 -80 6 0 12 12 12 28 l0 27 95 0 c86 0
95 -2 95 -19 0 -16 -5 -18 -36 -13 -25 4 -34 2 -31 -6 2 -7 21 -12 43 -12 l39
0 3 78 3 77 -115 0 -114 0 -4 -80z m212 55 c0 -12 -17 -15 -95 -15 -78 0 -95
3 -95 15 0 12 17 15 95 15 78 0 95 -3 95 -15z m0 -50 c0 -12 -17 -15 -95 -15
-78 0 -95 3 -95 15 0 12 17 15 95 15 78 0 95 -3 95 -15z"/>
<path d="M770 803 l0 -368 360 0 c198 0 359 3 358 6 -2 4 -164 170 -360 368
l-358 361 0 -367z m342 -9 c166 -167 306 -311 311 -319 7 -13 -32 -15 -313
-15 l-320 0 0 326 c0 216 3 323 10 319 6 -3 146 -143 312 -311z"/>
<path d="M1510 804 l0 -364 363 -2 c199 -2 363 -3 364 -3 1 0 -162 165 -363
367 l-364 366 0 -364z m80 255 c0 -12 57 -69 70 -69 6 0 9 -4 6 -8 -3 -5 6
-15 20 -23 14 -7 38 -30 53 -51 15 -21 31 -35 34 -31 4 3 7 1 7 -6 0 -16 25
-41 41 -41 7 0 10 -2 7 -6 -3 -3 19 -28 50 -57 31 -29 68 -65 83 -82 15 -16
66 -70 113 -118 47 -49 86 -93 86 -98 0 -5 -128 -9 -315 -9 l-315 0 0 325 0
326 30 -23 c17 -12 30 -25 30 -29z"/>
<path d="M2158 1033 c7 -3 16 -2 19 1 4 3 -2 6 -13 5 -11 0 -14 -3 -6 -6z"/>
<path d="M1060 361 l-45 -6 0 -120 0 -120 113 -3 c108 -3 113 -2 137 22 30 31
33 84 6 117 -13 16 -33 24 -67 28 -44 5 -49 9 -49 31 0 20 6 26 28 28 15 2 27
9 27 16 0 22 -60 6 -77 -20 -14 -22 -14 -26 1 -49 13 -20 25 -25 56 -25 74 0
107 -68 53 -110 -23 -18 -38 -20 -117 -18 l-91 3 -3 63 -3 62 41 0 c22 0 40 5
40 10 0 6 -18 10 -40 10 -38 0 -40 2 -40 30 0 28 2 30 40 30 29 0 40 4 40 15
0 8 -1 14 -2 13 -2 0 -23 -4 -48 -7z"/>
<path d="M1860 353 c0 -8 13 -13 30 -13 l30 0 0 -79 c0 -44 3 -87 7 -97 11
-30 -12 -7 -51 50 -33 47 -36 56 -25 74 10 16 10 26 1 47 -10 22 -18 26 -45
23 l-32 -3 -3 -122 c-2 -95 0 -123 10 -123 10 0 13 28 13 112 0 99 2 113 18
116 24 5 35 -28 14 -43 -10 -7 -17 -15 -17 -19 0 -16 114 -166 127 -166 10 0
13 26 13 115 l0 115 30 0 c17 0 30 5 30 13 0 8 -22 12 -75 12 -53 0 -75 -4
-75 -12z"/>
<path d="M772 239 l3 -124 47 -3 c62 -4 134 27 148 63 6 15 10 46 10 70 0 35
-6 52 -29 77 -27 30 -34 33 -105 36 l-77 4 3 -123z m138 86 c36 -19 50 -43 50
-88 0 -63 -59 -107 -142 -107 l-28 0 0 105 0 105 45 0 c26 0 59 -7 75 -15z"/>
<path d="M1320 353 c-1 -5 -2 -61 -3 -126 -1 -88 1 -117 11 -117 9 0 12 30 12
115 l0 115 40 0 c74 0 107 -67 54 -109 -15 -12 -40 -21 -55 -21 -16 0 -29 -4
-29 -10 0 -15 57 -12 89 5 49 25 57 90 16 130 -20 21 -34 25 -80 25 -30 0 -55
-3 -55 -7z"/>
<path d="M1559 345 c-31 -17 -59 -70 -59 -112 0 -69 75 -132 143 -119 108 20
140 149 56 221 -35 29 -97 33 -140 10z m124 -25 c14 -11 31 -36 37 -55 15 -46
-8 -97 -56 -120 -46 -22 -97 -6 -125 39 -58 91 60 202 144 136z"/>
<path d="M2058 342 c-56 -34 -73 -112 -38 -169 38 -63 112 -80 171 -40 99 66
53 227 -64 227 -23 0 -54 -8 -69 -18z m125 -22 c14 -11 31 -36 37 -55 16 -49
-12 -104 -62 -123 -105 -40 -183 100 -96 173 36 31 85 33 121 5z"/>
<path d="M724 235 c0 -55 1 -76 3 -47 2 29 2 74 0 100 -2 26 -3 2 -3 -53z"/>
</g>
</svg>
